<svg xmlns="http://www.w3.org/2000/svg" xmlns:xlink="http://www.w3.org/1999/xlink" xmlns:inkscape="http://www.inkscape.org/namespaces/inkscape" version="1.1" width="183.352" height="318.277" viewBox="0 0 183.352 318.277">
<path transform="matrix(1,0,0,-1,91.676,156.304)" d="M-91.67699-161.97522V156.30593H91.67699V-161.97522ZM91.67699 156.30593" fill="#ffffff"/>
<path transform="matrix(1,0,0,-1,91.676,156.304)" stroke-width=".79701" stroke-linecap="butt" stroke-miterlimit="10" stroke-linejoin="miter" fill="none" stroke="#000000" d="M-85.04042 119.0565H85.04042"/>
<path transform="matrix(1,0,0,-1,91.676,156.304)" stroke-width=".79701" stroke-linecap="butt" stroke-miterlimit="10" stroke-linejoin="miter" fill="none" stroke="#000000" d="M0 119.0565V99.21382"/>
<path transform="matrix(1,0,0,-1,91.676,156.304)" d="M22.67752 76.53629C22.67752 89.06088 12.5246 99.2138 0 99.2138-12.5246 99.2138-22.67752 89.06088-22.67752 76.53629-22.67752 64.01167-12.5246 53.85876 0 53.85876 12.5246 53.85876 22.67752 64.01167 22.67752 76.53629ZM0 76.53629" fill="#ccffcc"/>
<path transform="matrix(1,0,0,-1,91.676,156.304)" stroke-width=".79701" stroke-linecap="butt" stroke-miterlimit="10" stroke-linejoin="miter" fill="none" stroke="#000000" d="M22.67752 76.53629C22.67752 89.06088 12.5246 99.2138 0 99.2138-12.5246 99.2138-22.67752 89.06088-22.67752 76.53629-22.67752 64.01167-12.5246 53.85876 0 53.85876 12.5246 53.85876 22.67752 64.01167 22.67752 76.53629ZM0 76.53629"/>
<path transform="matrix(1,0,0,-1,91.676,156.304)" stroke-width=".79701" stroke-linecap="butt" stroke-miterlimit="10" stroke-linejoin="miter" fill="none" stroke="#000000" d="M-22.67752 76.53629V28.3468"/>
<path transform="matrix(1,0,0,-1,91.676,156.304)" stroke-width=".79701" stroke-linecap="butt" stroke-miterlimit="10" stroke-linejoin="miter" fill="none" stroke="#000000" d="M22.67752 76.53629V-68.03217"/>
<path transform="matrix(1,0,0,-1,91.676,156.304)" d="M-36.85092-25.51193V25.51193H-8.50412V-25.51193ZM-8.50412 25.51193" fill="#d9d9ff"/>
<path transform="matrix(1,0,0,-1,91.676,156.304)" stroke-width=".79701" stroke-linecap="butt" stroke-miterlimit="10" stroke-linejoin="miter" fill="none" stroke="#000000" d="M-36.85092-25.51193V25.51193H-8.50412V-25.51193ZM-8.50412 25.51193"/>
<text xml:space="preserve" transform="matrix(1 0 -0 1 0 318.277)" font-size="9.9626" font-family="Computer Modern" font-style="italic"><tspan y="-160.576" x="25.54">m</tspan></text>
<text xml:space="preserve" transform="matrix(1 0 -0 1 0 318.277)" font-size="6.9738" font-family="Computer Modern"><tspan y="-159.08101" x="34.287004">1</tspan></text>
<path transform="matrix(1,0,0,-1,91.676,156.304)" d="M8.50412-121.89136V-70.867H36.85092V-121.89136ZM36.85092-70.867" fill="#ffe6cc"/>
<path transform="matrix(1,0,0,-1,91.676,156.304)" stroke-width=".79701" stroke-linecap="butt" stroke-miterlimit="10" stroke-linejoin="miter" fill="none" stroke="#000000" d="M8.50412-121.89136V-70.867H36.85092V-121.89136ZM36.85092-70.867"/>
<text xml:space="preserve" transform="matrix(1 0 -0 1 0 318.277)" font-size="9.9626" font-family="Computer Modern" font-style="italic"><tspan y="-64.198" x="144.595">m</tspan></text>
<text xml:space="preserve" transform="matrix(1 0 -0 1 0 318.277)" font-size="6.9738" font-family="Computer Modern"><tspan y="-62.703" x="153.342">2</tspan></text>
<path transform="matrix(1,0,0,-1,91.676,156.304)" stroke-width=".3985" stroke-linecap="butt" stroke-miterlimit="10" stroke-linejoin="miter" fill="none" stroke="#0000ff" d="M-22.67752 0"/>
<text fill="#0000ff" xml:space="preserve" transform="matrix(1 0 -0 1 0 318.27699)" font-size="9.9626" font-family="Computer Modern" font-style="italic"><tspan y="-159.482" x="65.124">&#x00d7;</tspan></text>
<path transform="matrix(1,0,0,-1,91.676,156.304)" stroke-width=".79701" stroke-linecap="butt" stroke-miterlimit="10" stroke-linejoin="miter" fill="none" stroke="#0000ff" d="M-22.67752 0V33.50842"/>
<path transform="matrix(0,-1,-1,-0,68.99848,122.79558)" d="M4.53381 0C3.97704 .13808 1.52963 .92049 0 1.77196V-1.77196C1.52963-.92049 3.97704-.13808 4.53381 0Z" fill="#0000ff"/>
<path transform="matrix(0,-1,-1,-0,68.99848,122.79558)" stroke-width=".79701" stroke-linecap="butt" stroke-miterlimit="10" stroke-linejoin="miter" fill="none" stroke="#0000ff" d="M4.53381 0C3.97704 .13808 1.52963 .92049 0 1.77196V-1.77196C1.52963-.92049 3.97704-.13808 4.53381 0Z"/>
<text fill="#0000ff" xml:space="preserve" transform="matrix(1 0 -0 1 0 318.277)" font-size="9.9626" font-family="Computer Modern" font-style="italic"><tspan y="-178.412" x="72.718">K</tspan></text>
<path transform="matrix(1,0,0,-1,91.676,156.304)" stroke-width=".79701" stroke-linecap="butt" stroke-miterlimit="10" stroke-linejoin="miter" fill="none" stroke="#0000ff" d="M-22.67752 0V-22.16988"/>
<path transform="matrix(0,1,1,0,68.99848,178.47388)" d="M4.53381 0C3.97704 .13808 1.52963 .92049 0 1.77196V-1.77196C1.52963-.92049 3.97704-.13808 4.53381 0Z" fill="#0000ff"/>
<path transform="matrix(0,1,1,0,68.99848,178.47388)" stroke-width=".79701" stroke-linecap="butt" stroke-miterlimit="10" stroke-linejoin="miter" fill="none" stroke="#0000ff" d="M4.53381 0C3.97704 .13808 1.52963 .92049 0 1.77196V-1.77196C1.52963-.92049 3.97704-.13808 4.53381 0Z"/>
<text fill="#0000ff" xml:space="preserve" transform="matrix(1 0 -0 1 0 318.277)" font-size="9.9626" font-family="Computer Modern" font-style="italic"><tspan y="-139.537" x="72.718">m</tspan></text>
<text fill="#0000ff" xml:space="preserve" transform="matrix(1 0 -0 1 0 318.277)" font-size="6.9738" font-family="Computer Modern"><tspan y="-138.043" x="81.465007">1</tspan></text>
<text fill="#0000ff" xml:space="preserve" transform="matrix(1 0 -0 1 0 318.277)" font-size="9.9626" font-family="Computer Modern" font-style="italic"><tspan y="-139.537" x="85.934009">g</tspan></text>
<path transform="matrix(1,0,0,-1,91.676,156.304)" stroke-width=".3985" stroke-linecap="butt" stroke-miterlimit="10" stroke-linejoin="miter" fill="none" stroke="#e67300" d="M22.67752-96.37897"/>
<text fill="#e67300" xml:space="preserve" transform="matrix(1 0 -0 1 .0000076293949 318.277)" font-size="9.9626" font-family="Computer Modern" font-style="italic"><tspan y="-63.105" x="110.479">&#x00d7;</tspan></text>
<path transform="matrix(1,0,0,-1,91.676,156.304)" stroke-width=".79701" stroke-linecap="butt" stroke-miterlimit="10" stroke-linejoin="miter" fill="none" stroke="#e67300" d="M22.67752-96.37897V-62.87054"/>
<path transform="matrix(0,-1,-1,-0,114.35352,219.17455)" d="M4.53381 0C3.97704 .13808 1.52963 .92049 0 1.77196V-1.77196C1.52963-.92049 3.97704-.13808 4.53381 0Z" fill="#e67300"/>
<path transform="matrix(0,-1,-1,-0,114.35352,219.17455)" stroke-width=".79701" stroke-linecap="butt" stroke-miterlimit="10" stroke-linejoin="miter" fill="none" stroke="#e67300" d="M4.53381 0C3.97704 .13808 1.52963 .92049 0 1.77196V-1.77196C1.52963-.92049 3.97704-.13808 4.53381 0Z"/>
<text fill="#e67300" xml:space="preserve" transform="matrix(1 0 -0 1 .0000076293949 318.277)" font-size="9.9626" font-family="Computer Modern" font-style="italic"><tspan y="-82.034" x="118.072">K</tspan></text>
<path transform="matrix(1,0,0,-1,91.676,156.304)" stroke-width=".79701" stroke-linecap="butt" stroke-miterlimit="10" stroke-linejoin="miter" fill="none" stroke="#e67300" d="M22.67752-96.37897V-155.39978"/>
<path transform="matrix(0,1,1,0,114.35352,311.7038)" d="M4.53381 0C3.97704 .13808 1.52963 .92049 0 1.77196V-1.77196C1.52963-.92049 3.97704-.13808 4.53381 0Z" fill="#e67300"/>
<path transform="matrix(0,1,1,0,114.35352,311.7038)" stroke-width=".79701" stroke-linecap="butt" stroke-miterlimit="10" stroke-linejoin="miter" fill="none" stroke="#e67300" d="M4.53381 0C3.97704 .13808 1.52963 .92049 0 1.77196V-1.77196C1.52963-.92049 3.97704-.13808 4.53381 0Z"/>
<text fill="#e67300" xml:space="preserve" transform="matrix(1 0 -0 1 .0000076293949 318.27699)" font-size="9.9626" font-family="Computer Modern" font-style="italic"><tspan y="-31.821" x="118.072">m</tspan></text>
<text fill="#e67300" xml:space="preserve" transform="matrix(1 0 -0 1 .0000076293949 318.27699)" font-size="6.9738" font-family="Computer Modern"><tspan y="-30.325999" x="126.819">2</tspan></text>
<text fill="#e67300" xml:space="preserve" transform="matrix(1 0 -0 1 .0000076293949 318.27699)" font-size="9.9626" font-family="Computer Modern" font-style="italic"><tspan y="-31.821" x="131.289">g</tspan></text>
<path transform="matrix(1,0,0,-1,91.676,156.304)" stroke-width=".79701" stroke-linecap="butt" stroke-miterlimit="10" stroke-linejoin="miter" fill="none" stroke="#000000" d="M-79.37114 0V27.83914"/>
<path transform="matrix(0,-1,-1,-0,12.304863,128.46486)" d="M4.53381 0C3.97704 .13808 1.52963 .92049 0 1.77196V-1.77196C1.52963-.92049 3.97704-.13808 4.53381 0Z"/>
<path transform="matrix(0,-1,-1,-0,12.304863,128.46486)" stroke-width=".79701" stroke-linecap="butt" stroke-miterlimit="10" stroke-linejoin="miter" fill="none" stroke="#000000" d="M4.53381 0C3.97704 .13808 1.52963 .92049 0 1.77196V-1.77196C1.52963-.92049 3.97704-.13808 4.53381 0Z"/>
<text xml:space="preserve" transform="matrix(1 0 -0 1 -.0000009536743 318.27699)" font-size="9.9626" font-family="Computer Modern" font-style="italic"><tspan y="-176.836" x="3.321">a</tspan></text>
<path transform="matrix(1,0,0,-1,91.676,156.304)" stroke-width=".79701" stroke-linecap="butt" stroke-miterlimit="10" stroke-linejoin="miter" fill="none" stroke="#000000" d="M79.37114-96.37897V-124.21812"/>
<path transform="matrix(0,1,1,0,171.04715,280.52214)" d="M4.53381 0C3.97704 .13808 1.52963 .92049 0 1.77196V-1.77196C1.52963-.92049 3.97704-.13808 4.53381 0Z"/>
<path transform="matrix(0,1,1,0,171.04715,280.52214)" stroke-width=".79701" stroke-linecap="butt" stroke-miterlimit="10" stroke-linejoin="miter" fill="none" stroke="#000000" d="M4.53381 0C3.97704 .13808 1.52963 .92049 0 1.77196V-1.77196C1.52963-.92049 3.97704-.13808 4.53381 0Z"/>
<text xml:space="preserve" transform="matrix(1 0 -0 1 0 318.27699)" font-size="9.9626" font-family="Computer Modern" font-style="italic"><tspan y="-46.443" x="174.765">a</tspan></text>
<path transform="matrix(1,0,0,-1,91.676,156.304)" stroke-width=".3985" stroke-linecap="butt" stroke-miterlimit="10" stroke-linejoin="miter" fill="none" stroke="#009900" d="M-22.67752 76.53629"/>
<text fill="#009900" xml:space="preserve" transform="matrix(1 0 -0 1 0 318.277)" font-size="9.9626" font-family="Computer Modern" font-style="italic"><tspan y="-236.018" x="65.124">&#x00d7;</tspan></text>
<path transform="matrix(1,0,0,-1,91.676,156.304)" stroke-width=".79701" stroke-linecap="butt" stroke-miterlimit="10" stroke-linejoin="miter" fill="none" stroke="#009900" d="M-22.67752 76.53629V43.02785"/>
<path transform="matrix(0,1,1,0,68.99848,113.27615)" d="M4.53381 0C3.97704 .13808 1.52963 .92049 0 1.77196V-1.77196C1.52963-.92049 3.97704-.13808 4.53381 0Z" fill="#009900"/>
<path transform="matrix(0,1,1,0,68.99848,113.27615)" stroke-width=".79701" stroke-linecap="butt" stroke-miterlimit="10" stroke-linejoin="miter" fill="none" stroke="#009900" d="M4.53381 0C3.97704 .13808 1.52963 .92049 0 1.77196V-1.77196C1.52963-.92049 3.97704-.13808 4.53381 0Z"/>
<text fill="#009900" xml:space="preserve" transform="matrix(1 0 -0 1 .0000038146974 318.27699)" font-size="9.9626" font-family="Computer Modern" font-style="italic"><tspan y="-215.262" x="56.106">K</tspan></text>
<path transform="matrix(1,0,0,-1,91.676,156.304)" stroke-width=".3985" stroke-linecap="butt" stroke-miterlimit="10" stroke-linejoin="miter" fill="none" stroke="#009900" d="M22.67752 76.53629"/>
<text fill="#009900" xml:space="preserve" transform="matrix(1 0 -0 1 .0000076293949 318.277)" font-size="9.9626" font-family="Computer Modern" font-style="italic"><tspan y="-236.018" x="110.479">&#x00d7;</tspan></text>
<path transform="matrix(1,0,0,-1,91.676,156.304)" stroke-width=".79701" stroke-linecap="butt" stroke-miterlimit="10" stroke-linejoin="miter" fill="none" stroke="#009900" d="M22.67752 76.53629V43.02785"/>
<path transform="matrix(0,1,1,0,114.35352,113.27615)" d="M4.53381 0C3.97704 .13808 1.52963 .92049 0 1.77196V-1.77196C1.52963-.92049 3.97704-.13808 4.53381 0Z" fill="#009900"/>
<path transform="matrix(0,1,1,0,114.35352,113.27615)" stroke-width=".79701" stroke-linecap="butt" stroke-miterlimit="10" stroke-linejoin="miter" fill="none" stroke="#009900" d="M4.53381 0C3.97704 .13808 1.52963 .92049 0 1.77196V-1.77196C1.52963-.92049 3.97704-.13808 4.53381 0Z"/>
<text fill="#009900" xml:space="preserve" transform="matrix(1 0 -0 1 .0000076293949 318.27699)" font-size="9.9626" font-family="Computer Modern" font-style="italic"><tspan y="-215.262" x="118.072">K</tspan></text>
<path transform="matrix(1,0,0,-1,91.676,156.304)" stroke-width=".3985" stroke-linecap="butt" stroke-miterlimit="10" stroke-linejoin="miter" fill="none" stroke="#009900" d="M0 76.53629"/>
<text fill="#009900" xml:space="preserve" transform="matrix(1 0 -0 1 0 318.277)" font-size="9.9626" font-family="Computer Modern" font-style="italic"><tspan y="-236.018" x="87.801">&#x00d7;</tspan></text>
<path transform="matrix(1,0,0,-1,91.676,156.304)" stroke-width=".79701" stroke-linecap="butt" stroke-miterlimit="10" stroke-linejoin="miter" fill="none" stroke="#009900" d="M0 76.53629V149.7305"/>
<path transform="matrix(0,-1,-1,-0,91.676,6.5735018)" d="M4.53381 0C3.97704 .13808 1.52963 .92049 0 1.77196V-1.77196C1.52963-.92049 3.97704-.13808 4.53381 0Z" fill="#009900"/>
<path transform="matrix(0,-1,-1,-0,91.676,6.5735018)" stroke-width=".79701" stroke-linecap="butt" stroke-miterlimit="10" stroke-linejoin="miter" fill="none" stroke="#009900" d="M4.53381 0C3.97704 .13808 1.52963 .92049 0 1.77196V-1.77196C1.52963-.92049 3.97704-.13808 4.53381 0Z"/>
<text fill="#009900" xml:space="preserve" transform="matrix(1 0 -0 1 .0000076293949 318.27699)" font-size="9.9626" font-family="Computer Modern" font-style="italic"><tspan y="-303.317" x="95.395">F</tspan></text>
<text fill="#009900" xml:space="preserve" transform="matrix(1 0 -0 1 .0000076293949 318.27699)" font-size="6.9738" font-family="Computer Modern"><tspan y="-301.822" x="101.800998 104.91131 108.886379 111.99669 115.107 115.113979">tart&#x00b4;o</tspan></text>
<text fill="#009900" xml:space="preserve" transform="matrix(1 0 -0 1 .0000076293949 318.27699)" font-size="9.9626" font-family="Computer Modern"><tspan y="-303.317" x="122.349 132.8695">=2</tspan></text>
<text fill="#009900" xml:space="preserve" transform="matrix(1 0 -0 1 .0000076293949 318.27699)" font-size="9.9626" font-family="Computer Modern" font-style="italic"><tspan y="-303.317" x="137.8508">K</tspan></text>
</svg>
