<svg xmlns="http://www.w3.org/2000/svg" xmlns:xlink="http://www.w3.org/1999/xlink" xmlns:inkscape="http://www.inkscape.org/namespaces/inkscape" version="1.1" width="273.491" height="210.56" viewBox="0 0 273.491 210.56">
<path transform="matrix(1,0,0,-1,113.784,51.421998)" d="M-113.78574-159.14037V51.42282H159.70917V-159.14037ZM159.70917 51.42282" fill="#ffffff"/>
<path transform="matrix(1,0,0,-1,113.784,51.421998)" stroke-width=".79701" stroke-linecap="butt" stroke-miterlimit="10" stroke-linejoin="miter" fill="none" stroke="#000000" d="M-113.38724 0H56.69362"/>
<path transform="matrix(1,0,0,-1,113.784,51.421998)" stroke-width=".79701" stroke-linecap="butt" stroke-miterlimit="10" stroke-linejoin="miter" fill="none" stroke="#000000" d="M56.69362 0V-22.67752"/>
<path transform="matrix(1,0,0,-1,113.784,51.421998)" d="M87.87526 0C87.87526 9.39351 80.26053 17.00824 70.867 17.00824 61.4735 17.00824 53.85876 9.39351 53.85876 0 53.85876-9.39351 61.4735-17.00824 70.867-17.00824 80.26053-17.00824 87.87526-9.39351 87.87526 0ZM70.867 0" fill="#ccffcc"/>
<path transform="matrix(1,0,0,-1,113.784,51.421998)" stroke-width=".79701" stroke-linecap="butt" stroke-miterlimit="10" stroke-linejoin="miter" fill="none" stroke="#000000" d="M87.87526 0C87.87526 9.39351 80.26053 17.00824 70.867 17.00824 61.4735 17.00824 53.85876 9.39351 53.85876 0 53.85876-9.39351 61.4735-17.00824 70.867-17.00824 80.26053-17.00824 87.87526-9.39351 87.87526 0ZM70.867 0"/>
<path transform="matrix(1,0,0,-1,113.784,51.421998)" stroke-width=".3985" stroke-linecap="butt" stroke-miterlimit="10" stroke-linejoin="miter" fill="none" stroke="#009900" d="M70.867 0"/>
<text fill="#009900" xml:space="preserve" transform="matrix(1 0 -0 1 0 210.56)" font-size="9.9626" font-family="Computer Modern" font-style="italic"><tspan y="-156.648" x="180.776">&#x00d7;</tspan></text>
<path transform="matrix(1,0,0,-1,113.784,51.421998)" stroke-width=".79701" stroke-linecap="butt" stroke-miterlimit="10" stroke-linejoin="miter" fill="none" stroke="#000000" d="M56.69362 0H70.867"/>
<path transform="matrix(1,0,0,-1,113.784,51.421998)" d="M-62.36288 0V34.01608H-17.00824V0ZM-17.00824 34.01608" fill="#d9d9ff"/>
<path transform="matrix(1,0,0,-1,113.784,51.421998)" stroke-width=".79701" stroke-linecap="butt" stroke-miterlimit="10" stroke-linejoin="miter" fill="none" stroke="#000000" d="M-62.36288 0V34.01608H-17.00824V0ZM-17.00824 34.01608"/>
<text xml:space="preserve" transform="matrix(1 0 -0 1 -.000005722046 210.56)" font-size="9.9626" font-family="Computer Modern" font-style="italic"><tspan y="-174.749" x="22.137">m</tspan></text>
<text xml:space="preserve" transform="matrix(1 0 -0 1 -.000005722046 210.56)" font-size="6.9738" font-family="Computer Modern"><tspan y="-173.254" x="30.883999">1</tspan></text>
<path transform="matrix(1,0,0,-1,113.784,51.421998)" d="M73.70186-107.71794V-73.70186H102.04868V-107.71794ZM102.04868-73.70186" fill="#ffe6cc"/>
<path transform="matrix(1,0,0,-1,113.784,51.421998)" stroke-width=".79701" stroke-linecap="butt" stroke-miterlimit="10" stroke-linejoin="miter" fill="none" stroke="#000000" d="M73.70186-107.71794V-73.70186H102.04868V-107.71794ZM102.04868-73.70186"/>
<text xml:space="preserve" transform="matrix(1 0 -0 1 0 210.56)" font-size="9.9626" font-family="Computer Modern" font-style="italic"><tspan y="-67.032" x="231.9">m</tspan></text>
<text xml:space="preserve" transform="matrix(1 0 -0 1 0 210.56)" font-size="6.9738" font-family="Computer Modern"><tspan y="-65.537998" x="240.64699">2</tspan></text>
<path transform="matrix(1,0,0,-1,113.784,51.421998)" stroke-width=".79701" stroke-linecap="butt" stroke-miterlimit="10" stroke-linejoin="miter" fill="none" stroke="#000000" d="M-17.00824 17.00824H70.867"/>
<path transform="matrix(1,0,0,-1,113.784,51.421998)" stroke-width=".79701" stroke-linecap="butt" stroke-miterlimit="10" stroke-linejoin="miter" fill="none" stroke="#000000" d="M87.87527 0V-73.70186"/>
<path transform="matrix(1,0,0,-1,113.784,51.421998)" stroke-width=".3985" stroke-linecap="butt" stroke-miterlimit="10" stroke-linejoin="miter" fill="none" stroke="#0000ff" d="M-39.68535 17.00824"/>
<text fill="#0000ff" xml:space="preserve" transform="matrix(1 0 -0 1 0 210.56)" font-size="9.9626" font-family="Computer Modern" font-style="italic"><tspan y="-173.656" x="70.225">&#x00d7;</tspan></text>
<path transform="matrix(1,0,0,-1,113.784,51.421998)" stroke-width=".79701" stroke-linecap="butt" stroke-miterlimit="10" stroke-linejoin="miter" fill="none" stroke="#0000ff" d="M-39.68535 17.00824V-10.8309"/>
<path transform="matrix(0,1,1,0,74.09865,62.2529)" d="M4.53381 0C3.97704 .13808 1.52963 .92049 0 1.77196V-1.77196C1.52963-.92049 3.97704-.13808 4.53381 0Z" fill="#0000ff"/>
<path transform="matrix(0,1,1,0,74.09865,62.2529)" stroke-width=".79701" stroke-linecap="butt" stroke-miterlimit="10" stroke-linejoin="miter" fill="none" stroke="#0000ff" d="M4.53381 0C3.97704 .13808 1.52963 .92049 0 1.77196V-1.77196C1.52963-.92049 3.97704-.13808 4.53381 0Z"/>
<text fill="#0000ff" xml:space="preserve" transform="matrix(1 0 -0 1 -.0000076293949 210.56)" font-size="9.9626" font-family="Computer Modern" font-style="italic"><tspan y="-157.962" x="77.818">m</tspan></text>
<text fill="#0000ff" xml:space="preserve" transform="matrix(1 0 -0 1 -.0000076293949 210.56)" font-size="6.9738" font-family="Computer Modern"><tspan y="-156.468" x="86.566">1</tspan></text>
<text fill="#0000ff" xml:space="preserve" transform="matrix(1 0 -0 1 -.0000076293949 210.56)" font-size="9.9626" font-family="Computer Modern" font-style="italic"><tspan y="-157.962" x="91.035">g</tspan></text>
<path transform="matrix(1,0,0,-1,113.784,51.421998)" stroke-width=".79701" stroke-linecap="butt" stroke-miterlimit="10" stroke-linejoin="miter" fill="none" stroke="#0000ff" d="M-39.68535 17.00824V44.8474"/>
<path transform="matrix(0,-1,-1,-0,74.09865,6.5745966)" d="M4.53381 0C3.97704 .13808 1.52963 .92049 0 1.77196V-1.77196C1.52963-.92049 3.97704-.13808 4.53381 0Z" fill="#0000ff"/>
<path transform="matrix(0,-1,-1,-0,74.09865,6.5745966)" stroke-width=".79701" stroke-linecap="butt" stroke-miterlimit="10" stroke-linejoin="miter" fill="none" stroke="#0000ff" d="M4.53381 0C3.97704 .13808 1.52963 .92049 0 1.77196V-1.77196C1.52963-.92049 3.97704-.13808 4.53381 0Z"/>
<text fill="#0000ff" xml:space="preserve" transform="matrix(1 0 -0 1 -.0000076293949 210.56)" font-size="9.9626" font-family="Computer Modern" font-style="italic"><tspan y="-189.75" x="77.818">N</tspan></text>
<path transform="matrix(1,0,0,-1,113.784,51.421998)" stroke-width=".3985" stroke-linecap="butt" stroke-miterlimit="10" stroke-linejoin="miter" fill="none" stroke="#0000ff" d="M-17.00824 17.00824"/>
<text fill="#0000ff" xml:space="preserve" transform="matrix(1 0 -0 1 -.0000076293949 210.56)" font-size="9.9626" font-family="Computer Modern" font-style="italic"><tspan y="-173.656" x="92.902">&#x00d7;</tspan></text>
<path transform="matrix(1,0,0,-1,113.784,51.421998)" stroke-width=".79701" stroke-linecap="butt" stroke-miterlimit="10" stroke-linejoin="miter" fill="none" stroke="#0000ff" d="M-17.00824 17.00824H22.16988"/>
<path transform="matrix(1,0,0,-1,135.95388,34.413759)" d="M4.53381 0C3.97704 .13808 1.52963 .92049 0 1.77196V-1.77196C1.52963-.92049 3.97704-.13808 4.53381 0Z" fill="#0000ff"/>
<path transform="matrix(1,0,0,-1,135.95388,34.413759)" stroke-width=".79701" stroke-linecap="butt" stroke-miterlimit="10" stroke-linejoin="miter" fill="none" stroke="#0000ff" d="M4.53381 0C3.97704 .13808 1.52963 .92049 0 1.77196V-1.77196C1.52963-.92049 3.97704-.13808 4.53381 0Z"/>
<text fill="#0000ff" xml:space="preserve" transform="matrix(1 0 -0 1 0 210.56)" font-size="9.9626" font-family="Computer Modern" font-style="italic"><tspan y="-179.865" x="114.866">K</tspan></text>
<path transform="matrix(1,0,0,-1,113.784,51.421998)" stroke-width=".79701" stroke-linecap="butt" stroke-miterlimit="10" stroke-linejoin="miter" fill="none" stroke="#000000" d="M-102.04868 17.00824H-74.20952"/>
<path transform="matrix(1,0,0,-1,39.57448,34.413759)" d="M4.53381 0C3.97704 .13808 1.52963 .92049 0 1.77196V-1.77196C1.52963-.92049 3.97704-.13808 4.53381 0Z"/>
<path transform="matrix(1,0,0,-1,39.57448,34.413759)" stroke-width=".79701" stroke-linecap="butt" stroke-miterlimit="10" stroke-linejoin="miter" fill="none" stroke="#000000" d="M4.53381 0C3.97704 .13808 1.52963 .92049 0 1.77196V-1.77196C1.52963-.92049 3.97704-.13808 4.53381 0Z"/>
<text xml:space="preserve" transform="matrix(1 0 -0 1 0 210.56)" font-size="9.9626" font-family="Computer Modern" font-style="italic"><tspan y="-179.865" x="26.112">a</tspan></text>
<path transform="matrix(1,0,0,-1,113.784,51.421998)" stroke-width=".3985" stroke-linecap="butt" stroke-miterlimit="10" stroke-linejoin="miter" fill="none" stroke="#e67300" d="M87.87527-90.7097"/>
<text fill="#e67300" xml:space="preserve" transform="matrix(1 0 -0 1 0 210.56)" font-size="9.9626" font-family="Computer Modern" font-style="italic"><tspan y="-65.939" x="197.784">&#x00d7;</tspan></text>
<path transform="matrix(1,0,0,-1,113.784,51.421998)" stroke-width=".79701" stroke-linecap="butt" stroke-miterlimit="10" stroke-linejoin="miter" fill="none" stroke="#e67300" d="M87.87527-90.7097V-51.53157"/>
<path transform="matrix(0,-1,-1,-0,201.65927,102.95357)" d="M4.53381 0C3.97704 .13808 1.52963 .92049 0 1.77196V-1.77196C1.52963-.92049 3.97704-.13808 4.53381 0Z" fill="#e67300"/>
<path transform="matrix(0,-1,-1,-0,201.65927,102.95357)" stroke-width=".79701" stroke-linecap="butt" stroke-miterlimit="10" stroke-linejoin="miter" fill="none" stroke="#e67300" d="M4.53381 0C3.97704 .13808 1.52963 .92049 0 1.77196V-1.77196C1.52963-.92049 3.97704-.13808 4.53381 0Z"/>
<text fill="#e67300" xml:space="preserve" transform="matrix(1 0 -0 1 0 210.56)" font-size="9.9626" font-family="Computer Modern" font-style="italic"><tspan y="-87.703" x="205.377">K</tspan></text>
<path transform="matrix(1,0,0,-1,113.784,51.421998)" stroke-width=".79701" stroke-linecap="butt" stroke-miterlimit="10" stroke-linejoin="miter" fill="none" stroke="#e67300" d="M87.87527-90.7097V-152.56494"/>
<path transform="matrix(0,1,1,0,201.65927,203.98694)" d="M4.53381 0C3.97704 .13808 1.52963 .92049 0 1.77196V-1.77196C1.52963-.92049 3.97704-.13808 4.53381 0Z" fill="#e67300"/>
<path transform="matrix(0,1,1,0,201.65927,203.98694)" stroke-width=".79701" stroke-linecap="butt" stroke-miterlimit="10" stroke-linejoin="miter" fill="none" stroke="#e67300" d="M4.53381 0C3.97704 .13808 1.52963 .92049 0 1.77196V-1.77196C1.52963-.92049 3.97704-.13808 4.53381 0Z"/>
<text fill="#e67300" xml:space="preserve" transform="matrix(1 0 -0 1 0 210.56)" font-size="9.9626" font-family="Computer Modern" font-style="italic"><tspan y="-33.238" x="205.377">m</tspan></text>
<text fill="#e67300" xml:space="preserve" transform="matrix(1 0 -0 1 0 210.56)" font-size="6.9738" font-family="Computer Modern"><tspan y="-31.744" x="214.125">2</tspan></text>
<text fill="#e67300" xml:space="preserve" transform="matrix(1 0 -0 1 0 210.56)" font-size="9.9626" font-family="Computer Modern" font-style="italic"><tspan y="-33.238" x="218.594">g</tspan></text>
<path transform="matrix(1,0,0,-1,113.784,51.421998)" stroke-width=".79701" stroke-linecap="butt" stroke-miterlimit="10" stroke-linejoin="miter" fill="none" stroke="#000000" d="M147.40332-90.7097V-118.54884"/>
<path transform="matrix(0,1,1,0,261.18733,169.97084)" d="M4.53381 0C3.97704 .13808 1.52963 .92049 0 1.77196V-1.77196C1.52963-.92049 3.97704-.13808 4.53381 0Z"/>
<path transform="matrix(0,1,1,0,261.18733,169.97084)" stroke-width=".79701" stroke-linecap="butt" stroke-miterlimit="10" stroke-linejoin="miter" fill="none" stroke="#000000" d="M4.53381 0C3.97704 .13808 1.52963 .92049 0 1.77196V-1.77196C1.52963-.92049 3.97704-.13808 4.53381 0Z"/>
<text xml:space="preserve" transform="matrix(1 0 -0 1 0 210.56)" font-size="9.9626" font-family="Computer Modern" font-style="italic"><tspan y="-49.277" x="264.905">a</tspan></text>
<path transform="matrix(1,0,0,-1,113.784,51.421998)" stroke-width=".3985" stroke-linecap="butt" stroke-miterlimit="10" stroke-linejoin="miter" fill="none" stroke="#009900" d="M70.867 17.00824"/>
<text fill="#009900" xml:space="preserve" transform="matrix(1 0 -0 1 0 210.56)" font-size="9.9626" font-family="Computer Modern" font-style="italic"><tspan y="-173.656" x="180.776">&#x00d7;</tspan></text>
<path transform="matrix(1,0,0,-1,113.784,51.421998)" stroke-width=".79701" stroke-linecap="butt" stroke-miterlimit="10" stroke-linejoin="miter" fill="none" stroke="#009900" d="M70.867 17.00824H31.68889"/>
<path transform="matrix(-1,-0,0,1,145.47289,34.413759)" d="M4.53381 0C3.97704 .13808 1.52963 .92049 0 1.77196V-1.77196C1.52963-.92049 3.97704-.13808 4.53381 0Z" fill="#009900"/>
<path transform="matrix(-1,-0,0,1,145.47289,34.413759)" stroke-width=".79701" stroke-linecap="butt" stroke-miterlimit="10" stroke-linejoin="miter" fill="none" stroke="#009900" d="M4.53381 0C3.97704 .13808 1.52963 .92049 0 1.77196V-1.77196C1.52963-.92049 3.97704-.13808 4.53381 0Z"/>
<text fill="#009900" xml:space="preserve" transform="matrix(1 0 -0 1 0 210.56)" font-size="9.9626" font-family="Computer Modern" font-style="italic"><tspan y="-179.865" x="157.386">K</tspan></text>
<path transform="matrix(1,0,0,-1,113.784,51.421998)" stroke-width=".3985" stroke-linecap="butt" stroke-miterlimit="10" stroke-linejoin="miter" fill="none" stroke="#009900" d="M87.87527 0"/>
<text fill="#009900" xml:space="preserve" transform="matrix(1 0 -0 1 0 210.56)" font-size="9.9626" font-family="Computer Modern" font-style="italic"><tspan y="-156.648" x="197.784">&#x00d7;</tspan></text>
<path transform="matrix(1,0,0,-1,113.784,51.421998)" stroke-width=".79701" stroke-linecap="butt" stroke-miterlimit="10" stroke-linejoin="miter" fill="none" stroke="#009900" d="M87.87527 0V-39.17812"/>
<path transform="matrix(0,1,1,0,201.65927,90.60011)" d="M4.53381 0C3.97704 .13808 1.52963 .92049 0 1.77196V-1.77196C1.52963-.92049 3.97704-.13808 4.53381 0Z" fill="#009900"/>
<path transform="matrix(0,1,1,0,201.65927,90.60011)" stroke-width=".79701" stroke-linecap="butt" stroke-miterlimit="10" stroke-linejoin="miter" fill="none" stroke="#009900" d="M4.53381 0C3.97704 .13808 1.52963 .92049 0 1.77196V-1.77196C1.52963-.92049 3.97704-.13808 4.53381 0Z"/>
<text fill="#009900" xml:space="preserve" transform="matrix(1 0 -0 1 0 210.56)" font-size="9.9626" font-family="Computer Modern" font-style="italic"><tspan y="-133.057" x="205.377">K</tspan></text>
<path transform="matrix(1,0,0,-1,113.784,51.421998)" stroke-width=".79701" stroke-linecap="butt" stroke-miterlimit="10" stroke-linejoin="miter" fill="none" stroke="#009900" d="M70.867 0 107.72964 36.86263"/>
<path transform="matrix(.7071,-.7071,-.7071,-.7071,221.51364,14.559368)" d="M4.53381 0C3.97704 .13808 1.52963 .92049 0 1.77196V-1.77196C1.52963-.92049 3.97704-.13808 4.53381 0Z" fill="#009900"/>
<path transform="matrix(.7071,-.7071,-.7071,-.7071,221.51364,14.559368)" stroke-width=".79701" stroke-linecap="butt" stroke-miterlimit="10" stroke-linejoin="miter" fill="none" stroke="#009900" d="M4.53381 0C3.97704 .13808 1.52963 .92049 0 1.77196V-1.77196C1.52963-.92049 3.97704-.13808 4.53381 0Z"/>
<text fill="#009900" xml:space="preserve" transform="matrix(1 0 -0 1 0 210.56)" font-size="9.9626" font-family="Computer Modern" font-style="italic"><tspan y="-177.096" x="208.984">F</tspan></text>
<text fill="#009900" xml:space="preserve" transform="matrix(1 0 -0 1 0 210.56)" font-size="6.9738" font-family="Computer Modern"><tspan y="-175.60199" x="215.39099 218.50131 222.47638 225.5867 228.69702 228.704">tart&#x00b4;o</tspan></text>
</svg>
