<svg xmlns="http://www.w3.org/2000/svg" viewBox="0 0 500 500" width="100%" height="400">
  <defs>
    <style>
      .bg { fill: #FFFFFF; }
      .wall { stroke: #4A5568; stroke-width: 4; fill: none; }
      .glass { fill: #EDF2F7; opacity: 0.6; }
      .water { fill: #EBF8FF; stroke: #3182CE; stroke-width: 3; }
      .line { stroke: #2D3748; stroke-width: 2; fill: none; }
      .dash { stroke: #718096; stroke-width: 1.5; stroke-dasharray: 4,4; fill: none; }
      .vector { stroke: #E53E3E; stroke-width: 2; fill: none; }
      .text { font-family: 'Helvetica Neue', Helvetica, Arial, sans-serif; font-size: 14px; fill: #2D3748; }
      .math { font-family: 'Times New Roman', Times, serif; font-style: italic; font-size: 18px; }
      .title { font-weight: bold; font-size: 16px; }
    </style>
    <marker id="arrow" viewBox="0 0 10 10" refX="6" refY="5" markerWidth="6" markerHeight="6" orient="auto-start-reverse">
      <path d="M 0 1.5 L 10 5 L 0 8.5 z" fill="#2D3748"/>
    </marker>
  </defs>

  <!-- 1. White background assurance -->
  <rect width="500" height="500" class="bg" />

  <!-- Liquid column in the vessel (bottom part) -->
  <rect x="150" y="250" width="200" height="200" fill="#EBF8FF" />

  <!-- Meniscus (Concave liquid surface seen from above, center of sphere is C(250, 150)) -->
  <path d="M 150 250 A 141.42 141.42 0 0 0 350 250 L 350 450 L 150 450 Z" class="water" />
  
  <!-- Glass tube walls -->
  <rect x="120" y="50" width="30" height="400" class="glass" />
  <rect x="350" y="50" width="30" height="400" class="glass" />
  <line x1="150" y1="50" x2="150" y2="450" class="wall" />
  <line x1="350" y1="50" x2="350" y2="450" class="wall" />

  <!-- Vertical center axis of the tube -->
  <line x1="250" y1="50" x2="250" y2="450" class="dash" />

  <!-- GEOMETRIC CONSTRUCTION (Above the concave side, i.e., the meniscus) -->
  <!-- Point C: center of the sphere (250, 150) -->
  <!-- Point B: intersection of the meniscus and the left wall (150, 250) -->
  <!-- Point A: projection on the tube axis at the same height (250, 250) -->
  <polygon points="250,150 150,250 250,250" stroke="#2B6CB0" stroke-width="2" fill="none" />
  
  <!-- Right angle mark (At point A, between the axis and the radius projection) -->
  <path d="M 250 240 L 240 240 L 240 250" stroke="#2B6CB0" stroke-width="1" fill="none" />

  <!-- Surface tangent at the wall (points upward, making an angle with the vertical) -->
  <line x1="150" y1="250" x2="50" y2="150" stroke="#E53E3E" stroke-width="2" fill="none" />
  <!-- Vertical reference line upward along the wall for angle measurement -->
  <line x1="150" y1="250" x2="150" y2="100" class="dash" />

  <!-- Arcs for measuring angles -->
  <!-- Outer contact angle (Theta) between the tangent and the vertical wall above -->
  <path d="M 150 210 A 40 40 0 0 0 121.7 221.7" stroke="#E53E3E" stroke-width="2" fill="none" />
  
  <!-- CORRECTED: Inner angle (Theta) at point B(150, 250), inside the triangle (between horizontal r and hypotenuse R) -->
  <path d="M 190 250 A 40 40 0 0 0 178.3 221.7" stroke="#E53E3E" stroke-width="2" fill="none" />

  <!-- Labels and captions -->
  <!-- radius r (the lower horizontal leg of the right triangle) -->
  <line x1="152" y1="265" x2="248" y2="265" stroke="#2D3748" stroke-width="1" marker-start="url(#arrow)" marker-end="url(#arrow)" />
  <text x="195" y="285" class="math">r</text>

  <!-- radius R (radius of the sphere, the hypotenuse between C and B) -->
  <text x="200" y="195" class="math">R</text>

  <!-- Point C (Center of the sphere above, on the concave side) -->
  <circle cx="250" cy="150" r="4" fill="#2D3748" />
  <text x="265" y="155" class="text">C (Center of sphere)</text>

  <!-- Text labels for the Θ (Theta) angles -->
  <text x="125" y="195" class="math" font-size="22px">Θ</text>
  <!-- CORRECTED: Inner angle label placed next to the new arc in the bottom-left corner -->
  <text x="185" y="240" class="math" font-size="22px">Θ</text>

  <!-- Structural labels -->
  <text x="95" y="40" class="text title">Glass wall</text>
  <text x="345" y="40" class="text title">Glass wall</text>
  <text x="260" y="80" class="text">Center axis</text>
  <text x="35" y="135" class="text" fill="#E53E3E">Surface tangent</text>

  <!-- CORRECTED RELATIONSHIP BOX WITH FIXED POSITIONS -->
  <rect x="310" y="340" width="160" height="70" rx="5" fill="white" stroke="#3182CE" stroke-width="2" />
  
  <!-- Main text (cos Θ =) -->
  <text x="325" y="382" class="math" font-size="24px">cos Θ =</text>
  
  <!-- Numerator (r) -->
  <text x="428" y="367" class="math" font-size="24px" text-anchor="middle">r</text>
  
  <!-- Graphical fraction bar -->
  <line x1="415" y1="373" x2="441" y2="373" stroke="#2D3748" stroke-width="2" />
  
  <!-- Denominator (R) -->
  <text x="428" y="397" class="math" font-size="24px" text-anchor="middle">R</text>

</svg>